# xmcd
#
# Track frame offsets: 
#        150
#        26874
#        41919
#        59013
#        76726
#        89609
#        106752
#        120570
#        138386
#        154493
#        168053
#        193589
#        212942
#        241497
#
# Disc length: 3279 seconds
#
# Revision: 0
# Processed by: cddbd v1.5.1PL0 Copyright (c) Steve Scherf et al.
# Submitted via: ExactAudioCopy v0.95a5
#
DISCID=c50ccd0e
DTITLE=Roy Orbison - Greatest hits
DYEAR=1900
DGENRE=Pop
TTITLE0=Go, go, go (Down the line)
TTITLE1=In dreams
TTITLE2=Blue Bayou
TTITLE3=Ooby dooby
TTITLE4=Only the lonely
TTITLE5=It's over
TTITLE6=Claudette
TTITLE7=That lovin'you feelin' again
TTITLE8=You got it
TTITLE9=Crying
TTITLE10=Walk on
TTITLE11=Running scared
TTITLE12=Oh, pretty woman
TTITLE13=Running scared (reprise)
EXTD=
EXTT0=
EXTT1=
EXTT2=
EXTT3=
EXTT4=
EXTT5=
EXTT6=
EXTT7=
EXTT8=
EXTT9=
EXTT10=
EXTT11=
EXTT12=
EXTT13=
PLAYORDER=
